<svg width="60" height="60" viewBox="0 0 60 60" fill="none" xmlns="http://www.w3.org/2000/svg">
<path fill-rule="evenodd" clip-rule="evenodd" d="M39.0032 13.125H20.9932C18.0871 9.19954 22.0024 3.70568 26.8659 5.27462L29.1853 6.02285C29.7134 6.19321 30.283 6.19321 30.8111 6.02285L33.1306 5.27462C37.9941 3.70568 41.9094 9.19955 39.0032 13.125ZM21.2636 16.875H38.7328C42.031 18.7012 44.6077 21.7503 45.7876 25.5259L48.9126 35.5259C51.931 45.1848 44.715 55 34.5954 55H25.4011C15.2815 55 8.06546 45.1848 11.0839 35.5259L14.2089 25.5259C15.3887 21.7503 17.9654 18.7012 21.2636 16.875ZM31.75 23.75C31.75 22.7835 30.9665 22 30 22C29.0335 22 28.25 22.7835 28.25 23.75V25.9624C25.4876 26.6416 23.25 28.8916 23.25 31.875C23.25 35.4699 26.4989 38 30 38C32.0217 38 33.25 39.3874 33.25 40.625C33.25 41.8626 32.0217 43.25 30 43.25C27.9783 43.25 26.75 41.8626 26.75 40.625C26.75 39.6585 25.9665 38.875 25 38.875C24.0335 38.875 23.25 39.6585 23.25 40.625C23.25 43.6084 25.4876 45.8584 28.25 46.5376V48.75C28.25 49.7165 29.0335 50.5 30 50.5C30.9665 50.5 31.75 49.7165 31.75 48.75V46.5376C34.5124 45.8584 36.75 43.6084 36.75 40.625C36.75 37.0301 33.5011 34.5 30 34.5C27.9783 34.5 26.75 33.1126 26.75 31.875C26.75 30.6374 27.9783 29.25 30 29.25C32.0217 29.25 33.25 30.6374 33.25 31.875C33.25 32.8415 34.0335 33.625 35 33.625C35.9665 33.625 36.75 32.8415 36.75 31.875C36.75 28.8916 34.5124 26.6416 31.75 25.9624V23.75Z" fill="white"/>
</svg>
