<svg width="60" height="60" viewBox="0 0 60 60" fill="none" xmlns="http://www.w3.org/2000/svg">
<path fill-rule="evenodd" clip-rule="evenodd" d="M13.4445 12.3579L25.9391 6.80476C28.5247 5.65558 31.4762 5.65558 34.0618 6.80475L46.5068 12.3359C50.1461 13.9533 52.5349 17.5886 52.2799 21.5629C51.3018 36.8074 46.9435 43.6988 35.162 51.6938C32.0529 53.8037 27.9514 53.7986 24.8399 51.6921C13.0946 43.7404 8.57453 36.945 7.67545 21.5095C7.44547 17.5612 9.83045 13.9641 13.4445 12.3579ZM39.1937 23.9813C40.012 23.0461 39.9173 21.6247 38.9821 20.8064C38.0469 19.9881 36.6254 20.0829 35.8071 21.0181L28.4749 29.3978L23.906 25.7427C22.9357 24.9665 21.5198 25.1238 20.7435 26.0941C19.9672 27.0645 20.1245 28.4804 21.0949 29.2566L26.5977 33.6589C27.9558 34.7454 29.9285 34.5701 31.0738 33.2612L39.1937 23.9813Z" fill="white"/>
</svg>
