<svg width="129" height="71" viewBox="0 0 129 71" fill="none" xmlns="http://www.w3.org/2000/svg">
<path opacity="0.6" d="M52.8 21.2355L47.9833 26.0334L43.1667 21.2355L47.9833 16.4409L52.8 21.2355ZM64.5 9.59248L72.7567 17.8113L77.5767 13.0167L64.5 0L51.4233 13.0167L56.2433 17.8113L64.5 9.59248ZM81.0167 16.4409L76.2 21.2355L81.0167 26.0334L85.8333 21.2355L81.0167 16.4409ZM64.5 32.8819L56.2433 24.6631L51.4233 29.4576L64.5 42.471L77.5767 29.4576L72.7567 24.6631L64.5 32.8819ZM64.5 26.0334L69.3167 21.2355L64.5 16.4409L59.6833 21.2355L64.5 26.0334ZM16.4167 65.5945V65.548C16.4167 63.0429 15.0833 61.792 12.9133 60.9658C14.2467 60.2226 15.3733 59.0513 15.3733 56.9477V56.8946C15.3733 53.9647 13.02 52.0734 9.19333 52.0734H0.5V70.7142H9.40667C13.6333 70.7076 16.4167 69.0021 16.4167 65.5945ZM11.28 57.6312C11.28 59.0181 10.13 59.6021 8.31 59.6021H4.5V55.6603H8.56667C10.3033 55.6603 11.2667 56.3537 11.2667 57.5781L11.28 57.6312ZM12.3233 65.0868C12.3233 66.4738 11.2267 67.1108 9.40667 67.1108H4.5V63.0097H9.27333C11.3867 63.0097 12.3233 63.7828 12.3233 65.0337V65.0868ZM25.0567 70.7076V52.0668H20.9367V70.7076H25.0567ZM47.2 70.7076V52.0668H43.1333V63.5572L34.36 52.0801H30.56V70.7209H34.6267V58.8555L43.6967 70.7076H47.2ZM70.02 70.7076L61.9933 51.944H58.1967L50.1667 70.7076H54.3667L56.08 66.5269H64L65.7133 70.7076H70.02ZM62.53 62.8936H57.5533L60.04 56.8514L62.53 62.8936ZM89.6567 70.6976V52.0668H85.59V63.5572L76.8333 52.0668H73.0333V70.7076H77.1V58.8555L86.1667 70.7076L89.6567 70.6976ZM110.923 67.6882L108.303 65.0337C106.83 66.361 105.52 67.217 103.38 67.217C100.17 67.217 97.95 64.5626 97.95 61.3607V61.3076C97.95 58.1123 100.223 55.501 103.38 55.501C105.253 55.501 106.713 56.3006 108.17 57.6046L110.79 54.5952C109.05 52.893 106.937 51.7217 103.407 51.7217C97.6567 51.7217 93.6433 56.0617 93.6433 61.3607V61.4137C93.6433 66.7658 97.7367 70.9996 103.247 70.9996C106.857 71.0261 108.997 69.7487 110.923 67.6981V67.6882ZM128.5 70.7076V67.0577H118.333V63.1425H127.167V59.4926H118.333V55.7167H128.367V52.0668H114.243V70.7076H128.5Z" fill="white"/>
</svg>
