<svg width="221" height="41" viewBox="0 0 221 41" fill="none" xmlns="http://www.w3.org/2000/svg">
<path d="M0.5 0.189453H16.6288C19.7009 0.189453 22.005 0.957491 23.7118 2.23755C25.5892 3.77363 26.6133 5.9924 26.6133 8.7232C26.6133 11.8807 25.3332 13.8435 22.7731 15.0382V15.2088C26.1866 16.3182 28.1493 19.3904 28.1493 23.0599C28.1493 26.5587 26.7839 29.2895 24.5652 30.9963C22.6877 32.3617 20.2983 32.959 17.0555 32.959H0.5V0.189453ZM15.0074 12.9901C16.7141 12.9901 17.9942 12.0514 17.9942 10.0886C17.9942 8.21118 16.7141 7.27246 14.922 7.27246H9.3751V12.9047H15.0074V12.9901ZM15.7754 25.7054C17.7382 25.7054 19.1889 24.5106 19.1889 22.3772C19.1889 20.0731 17.6528 19.049 15.7754 19.049H9.46043V25.7907H15.7754V25.7054Z" fill="white"/>
<path d="M29.6016 0.189453H38.05V33.0444H29.6016V0.189453Z" fill="white"/>
<path d="M39.7539 21.3529C39.7539 13.9286 44.5328 8.979 51.9572 8.979C59.3815 8.979 64.0751 14.0139 64.0751 21.3529C64.0751 28.7773 59.3815 33.7269 51.9572 33.7269C44.5328 33.7269 39.7539 28.7773 39.7539 21.3529ZM55.6267 21.3529C55.6267 17.2567 54.3466 14.6966 51.7865 14.6966C49.2264 14.6966 48.0316 17.2567 48.0316 21.3529C48.0316 25.4491 49.2264 28.0946 51.7865 28.0946C54.3466 28.0093 55.6267 25.4491 55.6267 21.3529Z" fill="white"/>
<path d="M65.0156 21.3529C65.0156 13.9286 69.7945 8.979 77.2189 8.979C84.6432 8.979 89.2515 13.9286 89.2515 21.3529C89.2515 28.7773 84.5579 33.7269 77.1335 33.7269C69.7945 33.7269 65.0156 28.7773 65.0156 21.3529ZM80.8884 21.3529C80.8884 17.2567 79.6083 14.6966 77.0482 14.6966C74.4881 14.6966 73.2934 17.2567 73.2934 21.3529C73.2934 25.4491 74.4881 28.0946 77.0482 28.0946C79.6083 28.0093 80.8884 25.4491 80.8884 21.3529Z" fill="white"/>
<path d="M90.957 9.57674H98.8081V13.0756H98.9787C100.515 10.3448 102.648 8.89404 106.062 8.89404C109.049 8.89404 111.267 10.3448 112.377 12.9049H112.547C114.425 9.83276 116.9 8.89404 119.801 8.89404C125.263 8.89404 127.567 12.9049 127.567 18.2812V32.9592H119.374V19.7319C119.374 17.3425 118.606 15.8064 116.558 15.8064C114.51 15.8064 113.486 17.6838 113.486 20.2439V32.9592H105.294V19.7319C105.294 17.3425 104.526 15.8064 102.478 15.8064C100.429 15.8064 99.4054 17.6838 99.4054 20.2439V32.9592H90.957V9.57674Z" fill="white"/>
<path d="M137.893 29.8869H137.808V32.959H129.957V0.189453H138.149V11.966H138.32C139.856 9.91792 141.99 8.80854 144.976 8.80854C150.865 8.80854 154.278 14.0995 154.278 21.1825C154.278 29.1189 150.609 33.7271 144.464 33.7271C141.904 33.7271 139.259 32.5324 137.893 29.8869ZM145.83 21.0971C145.83 17.3423 144.464 14.8675 141.99 14.8675C139.429 14.8675 137.893 17.3423 137.893 21.0971C137.893 24.852 139.515 27.3268 141.99 27.3268C144.464 27.3268 145.83 24.9373 145.83 21.0971Z" fill="white"/>
<path d="M155.219 21.268C155.219 13.929 160.083 8.89404 167.081 8.89404C170.58 8.89404 173.225 10.0034 175.273 11.9662C178.004 14.6117 179.199 18.7079 179.113 23.4868H163.411C163.753 26.3882 165.118 27.9243 167.593 27.9243C169.043 27.9243 170.323 27.2416 170.836 25.7055H178.772C177.406 31.0818 173.225 33.7272 167.337 33.7272C160.083 33.6419 155.219 28.6923 155.219 21.268ZM163.411 18.7932H170.921C170.75 15.9771 169.214 14.5263 167.251 14.5263C164.947 14.441 163.667 16.0624 163.411 18.7932Z" fill="white"/>
<path d="M188.414 13.5873H188.584C190.291 10.3445 192.51 9.06445 195.326 9.06445C196.009 9.06445 196.435 9.14979 196.691 9.32047V16.4888H196.521C191.656 15.6354 188.84 17.9396 188.84 23.2305V33.0443H180.562V9.57648H188.414V13.5873Z" fill="white"/>
<path d="M197.544 33.0444H205.48C205.822 34.0685 206.846 35.0072 208.808 35.0072C211.454 35.0072 212.393 33.3858 212.393 30.911V29.2042H212.222C210.942 30.7403 209.15 31.8497 206.59 31.8497C201.555 31.8497 197.117 28.0949 197.117 20.7558C197.117 14.0142 200.701 8.80859 206.163 8.80859C209.32 8.80859 211.198 10.0887 212.478 12.0514H212.649V9.49129H220.5V29.8016C220.5 33.5565 219.22 36.4579 217.257 38.1647C215.209 39.9568 212.307 40.7248 208.979 40.7248C202.664 40.8101 198.312 38.25 197.544 33.0444ZM212.734 20.4145C212.734 17.513 211.369 15.1236 208.979 15.1236C206.675 15.1236 205.224 17.1717 205.224 20.4145C205.224 23.572 206.675 25.7908 208.979 25.7908C211.283 25.7908 212.734 23.4866 212.734 20.4145Z" fill="white"/>
</svg>
