<svg width="601" height="118" viewBox="0 0 601 118" fill="none" xmlns="http://www.w3.org/2000/svg">
<path d="M53.0996 59.0008C53.0996 62.2008 55.5996 64.7008 58.7996 64.7008C61.9996 64.7008 64.4996 62.2008 64.4996 59.0008C64.4996 55.8008 61.9996 53.3008 58.7996 53.3008C55.5996 53.4008 53.0996 55.9008 53.0996 59.0008ZM100.9 53.4008C97.6996 53.4008 95.1996 55.9008 95.1996 59.1008C95.1996 62.3008 97.6996 64.8008 100.9 64.8008C104.1 64.8008 106.6 62.3008 106.6 59.1008C106.6 55.9008 104.1 53.4008 100.9 53.4008ZM100.9 96.2008C97.6996 96.2008 95.1996 98.7008 95.1996 101.901C95.1996 105.101 97.6996 107.601 100.9 107.601C104.1 107.601 106.6 105.101 106.6 101.901C106.6 98.7008 104.1 96.2008 100.9 96.2008Z" fill="#CACDD5"/>
<path d="M113 6.29999C107.3 -0.800012 97.0998 -1.1 91.0998 4.5L90.3998 5.20001L88.9998 6.29999C83.2998 10.9 74.7998 10.5 69.4998 5.20001V4.79999C67.6998 2.99999 65.2998 1.59999 62.7998 0.899994C62.3998 0.899994 61.6998 0.5 61.3998 0.5H55.6998C55.2998 0.5 54.9998 0.499994 54.5998 0.899994H53.8998C53.4998 0.899994 53.1998 1.29999 52.7998 1.29999C52.7998 1.29999 52.3998 1.30001 52.3998 1.70001C51.9998 1.70001 51.6998 2.10001 51.2998 2.10001C51.2998 2.10001 50.8998 2.1 50.8998 2.5C50.4998 2.9 50.1998 2.90001 49.7998 3.20001C49.7998 3.20001 49.3998 3.20001 49.3998 3.60001C48.9998 4.00001 48.6998 3.99999 48.2998 4.29999L47.8998 4.70001L47.1998 5.39999L45.7998 6.5C40.0998 11.1 31.5998 10.7 26.6998 5.39999C26.6998 5.39999 26.2998 5.4 26.2998 5L25.5998 4.29999C23.4998 2.49999 20.9998 1.09999 18.1998 0.799988H11.7998C11.7998 1.19999 11.3998 1.2 11.0998 1.5H10.9998C9.19981 2.2 7.49981 2.89999 5.99981 4.29999L5.59981 4.70001L4.49981 5.79999C3.09981 7.19999 2.39981 8.99999 1.69981 10.4C1.69981 10.8 1.2998 11.1 1.2998 11.5C1.2998 11.9 0.899805 12.2 0.899805 12.9C0.499805 15.4 0.499805 17.9 1.2998 20.3C1.2998 20.7 1.69981 21 1.69981 21.4V21.8C1.69981 22.2 2.09981 22.5 2.09981 22.9C2.49981 23.3 2.4998 23.6 2.7998 24.3C3.4998 24.7 4.19981 25.4 4.59981 25.7L5.2998 26.4L5.99981 27.1C11.2998 32.4 11.2998 41.6 5.59981 47.3C4.89981 48 3.79981 49.1 3.49981 49.8C3.09981 50.2 3.0998 50.5 2.7998 51.2V51.6C2.3998 52 2.39981 52.3 2.09981 52.7V53.1C2.09981 53.5 1.69981 53.8 1.69981 54.2V54.6C1.69981 55 1.6998 55.3 1.2998 55.7V61C1.2998 61.4 1.29981 61.7 1.69981 62.1V62.5C2.39981 65 3.79981 67.5 5.89981 69.6C11.5998 75.3 11.5998 84.5 5.89981 90.1L5.49981 90.5L4.7998 91.2V91.6C4.3998 92 4.09981 92.3 4.09981 92.7C4.09981 92.7 4.09981 93.1 3.69981 93.1C3.29981 93.5 3.29981 93.8 2.99981 94.2L2.59981 94.6C2.59981 95 2.19981 95 2.19981 95.3C2.19981 95.6 1.7998 95.7 1.7998 96C1.7998 96.4 1.79981 96.4 1.39981 96.7C0.699805 98.1 0.299805 99.9 0.299805 101.3V104.1C0.699805 105.2 0.699805 106.2 1.39981 106.9C1.39981 107.3 1.7998 107.6 1.7998 107.6C1.7998 107.6 1.79981 108 2.19981 108C2.19981 108.4 2.59981 108.7 2.59981 109.1C2.59981 109.1 2.59981 109.5 2.99981 109.5C3.39981 110.2 3.69981 110.6 4.09981 110.9C4.09981 110.9 4.09981 111.3 4.49981 111.3C4.49981 111.3 4.4998 111.7 4.89981 111.7C4.89981 112.1 5.2998 112.1 5.2998 112.1L5.69981 112.5C6.09981 112.9 6.39981 112.9 6.39981 113.2L6.7998 113.6C6.7998 113.6 7.19981 113.6 7.19981 114C7.59981 114.4 7.8998 114.7 8.2998 114.7C8.2998 114.7 8.69981 114.7 8.69981 115.1C9.09981 115.5 9.39981 115.5 9.7998 115.8H9.99981C10.3998 116.2 10.6998 116.2 11.3998 116.2C11.7998 116.2 12.4998 116.6 12.7998 116.6H13.1998C13.5998 116.6 13.8998 116.6 14.2998 117H17.4998C18.5998 117 19.2998 116.6 20.2998 116.6H20.6998C21.0998 116.6 21.3998 116.2 21.7998 116.2H21.9998C22.3998 116.2 22.6998 115.8 23.0998 115.8H23.4998C24.1998 115.4 25.2998 114.7 25.9998 114.4L27.0998 113.3L27.4998 112.9C33.1998 106.9 42.3998 106.9 47.9998 112.9C54.3998 119.6 64.9998 119.3 70.9998 111.8C75.1998 106.5 75.1998 98.7 70.9998 93C65.2998 85.9 55.0998 85.6 49.0998 91.2L48.3998 91.9L46.9998 93C41.2998 97.6 32.7998 97.2 27.4998 91.9L26.7998 91.2L25.6998 89.8C21.0998 84.1 21.4998 75.6 26.7998 70.3C29.9998 67.5 31.3998 63.6 31.3998 59.7V58.6C31.3998 55.1 29.9998 51.5 27.1998 49C27.1998 48.6 26.7998 48.6 26.7998 48.3L25.6998 46.9C21.0998 41.2 21.4998 32.7 26.7998 27.4L27.1998 27L27.5998 26.6C33.2998 20.6 42.4998 20.6 48.0998 26.6L48.4998 27L48.8998 27.4L49.5998 28.1C49.9998 28.1 49.9998 28.5 50.2998 28.5C50.5998 28.5 50.6998 28.9 50.9998 28.9C51.2998 28.9 51.3998 29.3 51.6998 29.3C51.9998 29.3 52.0998 29.7 52.3998 29.7C52.6998 29.7 52.7998 30.1 53.0998 30.1C53.3998 30.1 53.4998 30.5 53.7998 30.5C54.0998 30.5 54.1998 30.5 54.4998 30.9C54.8998 30.9 54.8998 30.9 55.1998 31.3H61.1998C61.5998 31.3 61.8998 31.3 62.2998 30.9H62.9998C63.3998 30.9 63.6998 30.5 64.0998 30.5H64.4998C64.8998 30.5 65.1998 30.1 65.8998 29.8C67.2998 29.1 68.6998 28 69.7998 27L70.1998 26.6C75.8998 20.6 85.0998 20.6 90.6998 26.6C96.6998 33.7 107.7 33.3 113.4 25.9C117.2 19.4 117.2 11.6 113 6.29999Z" fill="#CACDD5"/>
<path d="M193.7 50.2008C191.6 48.1008 189.8 46.7008 187.3 45.6008C185.2 44.5008 182.7 43.8008 179.5 43.8008C176.7 43.8008 173.8 44.5008 171.7 45.6008C169.6 46.7008 167.8 48.1008 166.4 50.2008C165 52.0008 163.9 54.1008 163.2 56.6008C162.5 59.1008 162.1 61.6008 162.1 64.0008C162.1 66.4008 162.5 69.0008 163.5 71.4008C164.2 73.9008 165.6 75.6008 167 77.4008C168.4 79.2008 170.5 80.6008 172.7 81.6008C174.8 82.7008 177.3 83.0008 180.1 83.0008C183.3 83.0008 185.8 82.3008 187.9 81.2008C190 80.1008 192.1 78.7008 193.9 76.6008L201.3 84.4008C198.5 87.6008 195.3 89.7008 191.7 91.1008C188.2 92.5008 184.3 93.2008 180 93.2008C175.8 93.2008 171.5 92.5008 168 91.1008C164.5 89.7008 161.3 87.6008 158.8 85.1008C156.3 82.6008 154.2 79.4008 152.8 75.9008C151.4 72.4008 150.7 68.1008 150.7 63.9008C150.7 59.7008 151.4 55.4008 152.8 51.9008C154.2 48.4008 156.3 45.2008 158.8 42.3008C161.3 39.8008 164.5 37.7008 168 36.3008C171.5 34.9008 175.8 34.2008 180 34.2008C184.2 34.2008 188.1 34.9008 191.7 36.3008C195.6 37.7008 198.8 40.2008 201.6 43.0008L193.7 50.2008ZM217.7 63.3008C217.7 66.1008 218.1 69.0008 219.1 71.1008C219.8 73.6008 221.2 75.7008 222.6 77.5008C224 79.3008 226.1 80.7008 228.3 81.4008C230.4 82.5008 233.3 82.8008 236.1 82.8008C238.9 82.8008 241.4 82.4008 243.9 81.4008C246 80.3008 248.1 78.9008 249.6 77.5008C251 75.7008 252.4 73.6008 253.1 71.1008C253.8 68.6008 254.5 66.1008 254.5 63.3008C254.5 60.5008 254.1 57.6008 253.1 55.5008C252.4 53.0008 251 50.9008 249.6 49.1008C248.2 47.3008 246.1 45.9008 243.9 45.2008C241.8 44.1008 238.9 43.8008 236.1 43.8008C233.3 43.8008 230.8 44.2008 228.3 45.2008C226.2 46.3008 224.1 47.7008 222.6 49.1008C221.2 50.9008 219.8 53.0008 219.1 55.5008C218.4 58.0008 217.7 60.5008 217.7 63.3008ZM206.4 63.3008C206.4 59.1008 207.1 55.2008 208.5 51.6008C209.9 48.1008 212 44.9008 214.9 42.0008C217.7 39.2008 220.6 37.0008 224.5 35.6008C228 34.2008 231.9 33.1008 236.2 33.1008C240.5 33.1008 244.3 33.8008 247.9 35.6008C251.4 37.0008 254.6 39.1008 257.5 42.0008C260.3 44.8008 262.1 48.0008 263.9 51.6008C265.3 55.1008 266 59.0008 266 63.3008C266 67.5008 265.3 71.4008 263.9 75.0008C262.5 78.5008 260.4 81.7008 257.5 84.6008C254.7 87.4008 251.8 89.2008 247.9 91.0008C244.4 92.4008 240.5 93.5008 236.2 93.5008C232 93.5008 228.1 92.8008 224.5 91.0008C221 89.6008 217.8 87.5008 214.9 84.6008C212.1 81.8008 210.3 78.9008 208.5 75.0008C207.5 71.4008 206.4 67.5008 206.4 63.3008ZM276.9 92.0008H287.5V35.4008H276.9V92.0008ZM274.4 14.8008C274.4 12.7008 275.1 10.9008 276.5 9.1008C277.9 7.7008 279.7 6.6008 281.8 6.6008C283.9 6.6008 285.7 7.3008 287.1 9.1008C288.5 10.5008 289.2 12.6008 289.2 14.8008C289.2 17.0008 288.5 18.7008 287.1 20.5008C285.7 21.9008 283.9 23.0008 281.8 23.0008C279.7 23.0008 277.9 22.3008 276.5 20.5008C275.1 19.0008 274.4 16.9008 274.4 14.8008ZM302.3 35.3008H313V44.1008H313.4C314.8 40.9008 316.9 38.4008 320.5 36.7008C323.7 34.9008 327.6 33.9008 332.2 33.9008C335 33.9008 337.5 34.3008 340 35.3008C342.5 36.0008 344.6 37.4008 346.4 39.2008C348.2 41.0008 349.6 43.1008 351 45.9008C352.1 48.7008 352.8 51.9008 352.8 55.8008V92.3008H342V58.7008C342 56.2008 341.6 53.7008 340.9 52.0008C340.2 50.2008 339.1 48.5008 338.1 47.4008C337 46.3008 335.6 45.3008 333.9 44.9008C332.5 44.5008 330.7 44.2008 328.9 44.2008C326.8 44.2008 324.7 44.6008 322.9 45.3008C321.1 46.0008 319.4 47.1008 317.9 48.8008C316.5 50.2008 315.4 52.3008 314.7 54.8008C314 57.3008 313.6 60.1008 313.6 63.3008V92.7008H303V35.4008M391.9 83.1008C394.7 83.1008 397.2 82.7008 399.7 81.7008C402.2 80.6008 403.9 79.2008 405.7 77.5008C407.1 75.7008 408.5 73.6008 409.2 71.1008C409.9 68.6008 410.6 66.1008 410.6 63.0008C410.6 60.2008 410.2 57.3008 409.2 54.9008C408.5 52.4008 407.1 50.3008 405.7 48.5008C403.9 46.7008 402.2 45.3008 399.7 44.3008C397.2 43.2008 394.7 42.9008 391.9 42.9008C389.1 42.9008 386.6 43.3008 384.1 44.3008C381.6 45.4008 379.9 46.8008 378.1 48.5008C376.7 50.3008 375.3 52.4008 374.6 54.9008C373.9 57.4008 373.2 59.9008 373.2 63.0008C373.2 65.8008 373.6 68.7008 374.6 71.1008C375.3 73.6008 376.7 75.7008 378.1 77.5008C379.5 79.3008 381.6 80.7008 384.1 81.7008C386.2 82.4008 389.1 83.1008 391.9 83.1008ZM421.3 91.6008H410.7V83.5008H410.3C408.2 86.7008 405.3 88.8008 401.8 90.6008C398.3 92.4008 394.4 93.1008 390.5 93.1008C386.3 93.1008 382 92.4008 378.5 91.0008C375 89.6008 371.8 87.5008 369.3 84.6008C366.8 81.8008 364.7 78.6008 363.6 75.0008C362.2 71.5008 361.5 67.6008 361.5 63.3008C361.5 59.0008 362.2 55.2008 363.6 51.3008C365 47.8008 366.8 44.6008 369.3 41.7008C371.8 38.9008 375 36.7008 378.5 35.3008C382 33.9008 385.9 33.2008 390.5 33.2008C394.4 33.2008 398.3 33.9008 401.8 35.7008C405.3 37.5008 408.2 39.9008 409.9 42.8008H410.3V0.300781H420.9V91.6008H421.3ZM475.4 58.7008C475.4 56.2008 475 54.1008 474.3 52.0008C473.6 49.9008 472.5 48.1008 471.1 46.7008C469.7 45.3008 467.9 44.2008 466.1 43.2008C464 42.5008 461.9 41.8008 459 41.8008C456.5 41.8008 454 42.2008 451.9 43.2008C449.8 44.3008 448 45.3008 446.2 47.1008C444.8 48.5008 443.4 50.3008 442.7 52.4008C442 54.5008 441.3 56.3008 441.3 58.1008H475.3L475.4 58.7008ZM441.5 67.5008C441.5 70.0008 442.2 72.1008 443.3 74.2008C444.4 76.3008 445.8 78.1008 447.5 79.5008C449.3 80.9008 451.4 82.0008 453.5 82.7008C456 83.4008 458.1 83.8008 460.6 83.8008C463.8 83.8008 467 83.1008 469.4 81.3008C471.9 79.9008 474 77.8008 476.1 75.3008L484.2 81.7008C478.2 89.5008 469.7 93.4008 459.1 93.4008C454.5 93.4008 450.6 92.7008 447.1 91.3008C443.6 89.9008 440.4 87.8008 437.9 84.9008C435.4 82.1008 433.3 79.2008 432.2 75.3008C430.8 71.8008 430.1 67.9008 430.1 63.6008C430.1 59.4008 430.8 55.5008 432.2 51.9008C433.6 48.4008 435.7 45.2008 438.2 42.3008C440.7 39.5008 443.9 37.7008 447.4 35.9008C450.9 34.5008 454.8 33.8008 459.1 33.8008C464.1 33.8008 468.3 34.5008 471.8 36.3008C475.3 38.1008 478.2 40.2008 480.3 43.0008C482.4 45.8008 484.2 49.0008 485.3 52.6008C486.4 56.1008 486.7 59.7008 486.7 63.6008V67.5008H441.5ZM528.5 49.5008C527.1 48.1008 525.7 46.7008 523.9 45.6008C522.1 44.5008 519.7 43.8008 517.2 43.8008C514.7 43.8008 512.6 44.5008 510.5 45.6008C508.7 46.7008 507.7 48.1008 507.7 50.2008C507.7 52.0008 508.4 53.4008 509.5 54.1008C510.6 55.2008 512 55.9008 513.4 56.6008C514.8 57.3008 516.6 57.7008 518 58.0008C519.8 58.4008 521.2 58.7008 522.2 58.7008C524.3 59.4008 526.8 59.8008 528.6 60.8008C530.7 61.5008 532.5 62.6008 533.9 64.0008C535.3 65.4008 536.4 66.8008 537.4 68.6008C538.1 70.4008 538.8 72.5008 538.8 75.3008C538.8 78.5008 538.1 81.3008 536.7 83.4008C535.3 85.5008 533.5 87.6008 531.4 89.1008C529.3 90.6008 526.8 91.6008 524 92.3008C521.2 93.0008 518.3 93.4008 515.9 93.4008C511.3 93.4008 507.1 92.7008 503.5 91.3008C500 89.9008 496.8 87.4008 493.9 83.5008L502 76.8008C503.8 78.6008 505.5 80.0008 507.7 81.4008C509.9 82.8008 512.3 83.5008 515.5 83.5008C516.9 83.5008 518.3 83.5008 519.7 83.1008C521.1 82.7008 522.2 82.4008 523.2 81.7008C524.3 81.0008 525 80.3008 525.7 79.6008C526.4 78.5008 526.8 77.5008 526.8 76.4008C526.8 75.0008 526.4 73.6008 525.4 72.5008C524.3 71.4008 523.3 70.7008 521.9 70.0008C520.5 69.3008 519.1 68.9008 517.7 68.6008L513.5 67.5008C511.4 66.8008 508.9 66.4008 507.1 65.7008C505 65.0008 503.2 63.9008 501.8 62.9008C500.4 61.8008 499 60.1008 497.9 58.3008C496.8 56.5008 496.5 54.1008 496.5 51.6008C496.5 48.8008 497.2 45.9008 498.3 43.8008C499.4 41.7008 501.1 39.9008 503.3 38.5008C505.4 37.1008 507.5 36.0008 510 35.3008C512.5 34.6008 515.3 34.2008 517.8 34.2008C521.7 34.2008 525.2 34.9008 528.8 36.3008C532.3 37.7008 535.2 40.2008 537.3 43.4008L528.5 49.5008ZM549.1 1.70081H559.7V59.0008L583.8 34.9008H598.3L572.5 60.4008L600.8 90.8008H585.6L559.8 61.8008V90.8008H549.2V1.70081" fill="#CACDD5"/>
</svg>
