<svg width="251" height="45" viewBox="0 0 251 45" fill="none" xmlns="http://www.w3.org/2000/svg">
<path d="M50.9566 12.6614C41.8747 12.6614 34.7784 19.5396 34.7784 28.7476C34.7784 37.9555 41.6954 44.7748 50.9566 44.7748C60.2178 44.7748 67.255 37.8378 67.255 28.6887C67.255 19.5985 60.3381 12.6614 50.9566 12.6614ZM51.0179 38.1389C45.846 38.1389 42.0562 34.1315 42.0562 28.7498C42.0562 23.307 45.7848 19.3019 50.9566 19.3019C56.1897 19.3019 59.9772 23.3682 59.9772 28.7498C59.9772 34.1315 56.1897 38.1389 51.0179 38.1389ZM69.2384 19.6596H73.7499V44.1794H80.9664V13.2591H69.2384V19.6596ZM16.6169 19.2996C20.4067 19.2996 23.4136 21.6316 24.555 25.1002H32.1937C30.8094 17.6854 24.6753 12.6614 16.6782 12.6614C7.59624 12.6614 0.5 19.5396 0.5 28.7498C0.5 37.96 7.41696 44.7771 16.6782 44.7771C24.496 44.7771 30.7504 39.7532 32.1347 32.2772H24.555C23.4726 35.7458 20.4657 38.1389 16.6759 38.1389C11.4428 38.1389 7.77552 34.1315 7.77552 28.7498C7.77779 23.307 11.386 19.2996 16.6169 19.2996ZM206.357 25.759L201.065 24.9824C198.539 24.6247 196.735 23.787 196.735 21.8127C196.735 19.6596 199.081 18.5842 202.267 18.5842C205.755 18.5842 207.982 20.0785 208.463 22.5304H215.439C214.656 16.3111 209.845 12.6637 202.449 12.6637C194.81 12.6637 189.759 16.5511 189.759 22.0527C189.759 27.3144 193.067 30.3664 199.742 31.3218L205.034 32.0984C207.621 32.4561 209.064 33.4749 209.064 35.3881C209.064 37.84 206.538 38.8566 203.05 38.8566C198.779 38.8566 196.374 37.1223 196.013 34.4915H188.917C189.579 40.532 194.329 44.7771 202.989 44.7771C210.868 44.7771 216.099 41.1886 216.099 35.0281C216.099 29.5264 212.311 26.6556 206.357 25.759ZM77.3581 0.521512C74.7121 0.521512 72.7264 2.43464 72.7264 5.06548C72.7264 7.69632 74.7098 9.60945 77.3581 9.60945C80.0042 9.60945 81.9899 7.69632 81.9899 5.06548C81.9899 2.43464 80.0042 0.521512 77.3581 0.521512ZM183.264 23.8459C183.264 17.1488 179.175 12.6637 170.515 12.6637C162.336 12.6637 157.766 16.7911 156.862 23.1304H164.02C164.381 20.6784 166.305 18.6453 170.394 18.6453C174.064 18.6453 175.868 20.2596 175.868 22.2339C175.868 24.8058 172.559 25.4624 168.47 25.8813C162.937 26.479 156.082 28.3921 156.082 35.5692C156.082 41.132 160.232 44.7182 166.847 44.7182C172.019 44.7182 175.267 42.5651 176.892 39.1554C177.132 42.2051 179.417 44.1794 182.606 44.1794H186.815V37.7812H183.266V23.8459H183.264ZM176.168 31.6207C176.168 35.748 172.559 38.7977 168.168 38.7977C165.461 38.7977 163.176 37.6612 163.176 35.2703C163.176 32.2206 166.845 31.3829 170.213 31.0252C173.46 30.7264 175.264 30.0086 176.168 28.6321V31.6207ZM137.859 12.6614C133.828 12.6614 130.461 14.3368 128.055 17.1465V0.222656H120.839V44.1794H127.935V40.1131C130.341 43.0428 133.77 44.7771 137.859 44.7771C146.519 44.7771 153.075 37.96 153.075 28.7498C153.075 19.5396 146.398 12.6614 137.859 12.6614ZM136.776 38.1389C131.605 38.1389 127.815 34.1315 127.815 28.7498C127.815 23.3682 131.664 19.3019 136.835 19.3019C142.068 19.3019 145.736 23.3093 145.736 28.7498C145.736 34.1315 141.948 38.1389 136.776 38.1389ZM103.578 12.6614C98.8874 12.6614 95.8192 14.5745 94.0151 17.2665V13.2591H86.8576V44.1771H94.0741V27.3733C94.0741 22.6482 97.081 19.2996 101.531 19.2996C105.682 19.2996 108.267 22.2293 108.267 26.4767V44.1794H115.483V25.9401C115.485 18.1631 111.457 12.6614 103.578 12.6614ZM250.5 27.7333C250.5 18.883 244.005 12.6637 235.284 12.6637C226.023 12.6637 219.226 19.6008 219.226 28.7498C219.226 38.3789 226.504 44.7771 235.404 44.7771C242.923 44.7771 248.816 40.3509 250.318 34.0726H242.8C241.718 36.8235 239.072 38.3789 235.522 38.3789C230.891 38.3789 227.403 35.508 226.622 30.4841H250.498V27.7333H250.5ZM227.044 25.3401C228.188 21.0339 231.435 18.9419 235.164 18.9419C239.253 18.9419 242.38 21.2739 243.102 25.3401H227.044Z" fill="white"/>
</svg>
