<svg version="1.1" xmlns="http://www.w3.org/2000/svg" xmlns:xlink="http://www.w3.org/1999/xlink" width="251" height="45" viewBox="0,0,256,45.89063"><g fill="#ffffff" fill-rule="nonzero" stroke="none" stroke-width="1" stroke-linecap="butt" stroke-linejoin="miter" stroke-miterlimit="10" stroke-dasharray="" stroke-dashoffset="0" font-family="none" font-weight="none" font-size="none" text-anchor="none" style="mix-blend-mode: normal"><g transform="translate(0,-0.00277) scale(1.01992,1.01992)"><path d="M50.9566,12.6614c-9.0819,0 -16.1782,6.8782 -16.1782,16.0862c0,9.2079 6.917,16.0272 16.1782,16.0272c9.2612,0 16.2984,-6.937 16.2984,-16.0861c0,-9.0902 -6.9169,-16.0273 -16.2984,-16.0273zM51.0179,38.1389c-5.1719,0 -8.9617,-4.0074 -8.9617,-9.3891c0,-5.4428 3.7286,-9.4479 8.9004,-9.4479c5.2331,0 9.0206,4.0663 9.0206,9.4479c0,5.3817 -3.7875,9.3891 -8.9593,9.3891zM69.2384,19.6596h4.5115v24.5198h7.2165v-30.9203h-11.728zM16.6169,19.2996c3.7898,0 6.7967,2.332 7.9381,5.8006h7.6387c-1.3843,-7.4148 -7.5184,-12.4388 -15.5155,-12.4388c-9.08196,0 -16.1782,6.8782 -16.1782,16.0884c0,9.2102 6.91696,16.0273 16.1782,16.0273c7.8178,0 14.0722,-5.0239 15.4565,-12.4999h-7.5797c-1.0824,3.4686 -4.0893,5.8617 -7.8791,5.8617c-5.2331,0 -8.90038,-4.0074 -8.90038,-9.3891c0.00227,-5.4428 3.61048,-9.4502 8.84138,-9.4502zM206.357,25.759l-5.292,-0.7766c-2.526,-0.3577 -4.33,-1.1954 -4.33,-3.1697c0,-2.1531 2.346,-3.2285 5.532,-3.2285c3.488,0 5.715,1.4943 6.196,3.9462h6.976c-0.783,-6.2193 -5.594,-9.8667 -12.99,-9.8667c-7.639,0 -12.69,3.8874 -12.69,9.389c0,5.2617 3.308,8.3137 9.983,9.2691l5.292,0.7766c2.587,0.3577 4.03,1.3765 4.03,3.2897c0,2.4519 -2.526,3.4685 -6.014,3.4685c-4.271,0 -6.676,-1.7343 -7.037,-4.3651h-7.096c0.662,6.0405 5.412,10.2856 14.072,10.2856c7.879,0 13.11,-3.5885 13.11,-9.749c0,-5.5017 -3.788,-8.3725 -9.742,-9.2691zM77.3581,0.52151c-2.646,0 -4.6317,1.91313 -4.6317,4.54397c0,2.63084 1.9834,4.54397 4.6317,4.54397c2.6461,0 4.6318,-1.91313 4.6318,-4.54397c0,-2.63084 -1.9857,-4.54397 -4.6318,-4.54397zM183.264,23.8459c0,-6.6971 -4.089,-11.1822 -12.749,-11.1822c-8.179,0 -12.749,4.1274 -13.653,10.4667h7.158c0.361,-2.452 2.285,-4.4851 6.374,-4.4851c3.67,0 5.474,1.6143 5.474,3.5886c0,2.5719 -3.309,3.2285 -7.398,3.6474c-5.533,0.5977 -12.388,2.5108 -12.388,9.6879c0,5.5628 4.15,9.149 10.765,9.149c5.172,0 8.42,-2.1531 10.045,-5.5628c0.24,3.0497 2.525,5.024 5.714,5.024h4.209v-6.3982h-3.549v-13.9353zM176.168,31.6207c0,4.1273 -3.609,7.177 -8,7.177c-2.707,0 -4.992,-1.1365 -4.992,-3.5274c0,-3.0497 3.669,-3.8874 7.037,-4.2451c3.247,-0.2988 5.051,-1.0166 5.955,-2.3931zM137.859,12.6614c-4.031,0 -7.398,1.6754 -9.804,4.4851v-16.92384h-7.216v43.95674h7.096v-4.0663c2.406,2.9297 5.835,4.664 9.924,4.664c8.66,0 15.216,-6.8171 15.216,-16.0273c0,-9.2102 -6.677,-16.0884 -15.216,-16.0884zM136.776,38.1389c-5.171,0 -8.961,-4.0074 -8.961,-9.3891c0,-5.3816 3.849,-9.4479 9.02,-9.4479c5.233,0 8.901,4.0074 8.901,9.4479c0,5.3817 -3.788,9.3891 -8.96,9.3891zM103.578,12.6614c-4.6906,0 -7.7588,1.9131 -9.5629,4.6051v-4.0074h-7.1575v30.918h7.2165v-16.8038c0,-4.7251 3.0069,-8.0737 7.4569,-8.0737c4.151,0 6.736,2.9297 6.736,7.1771v17.7027h7.216v-18.2393c0.002,-7.777 -4.026,-13.2787 -11.905,-13.2787zM250.5,27.7333c0,-8.8503 -6.495,-15.0696 -15.216,-15.0696c-9.261,0 -16.058,6.9371 -16.058,16.0861c0,9.6291 7.278,16.0273 16.178,16.0273c7.519,0 13.412,-4.4262 14.914,-10.7045h-7.518c-1.082,2.7509 -3.728,4.3063 -7.278,4.3063c-4.631,0 -8.119,-2.8709 -8.9,-7.8948h23.876v-2.7508zM227.044,25.3401c1.144,-4.3062 4.391,-6.3982 8.12,-6.3982c4.089,0 7.216,2.332 7.938,6.3982z"></path></g></g></svg>