<svg version="1.1" xmlns="http://www.w3.org/2000/svg" xmlns:xlink="http://www.w3.org/1999/xlink" width="221" height="41" viewBox="0,0,256,47.48438"><g fill="#ffffff" fill-rule="nonzero" stroke="none" stroke-width="1" stroke-linecap="butt" stroke-linejoin="miter" stroke-miterlimit="10" stroke-dasharray="" stroke-dashoffset="0" font-family="none" font-weight="none" font-size="none" text-anchor="none" style="mix-blend-mode: normal"><g transform="translate(0,0.04405) scale(1.15837,1.15837)"><path d="M0.5,0.18945h16.1288c3.0721,0 5.3762,0.76804 7.083,2.0481c1.8774,1.53608 2.9015,3.75485 2.9015,6.48565c0,3.1575 -1.2801,5.1203 -3.8402,6.315v0.1706c3.4135,1.1094 5.3762,4.1816 5.3762,7.8511c0,3.4988 -1.3654,6.2296 -3.5841,7.9364c-1.8775,1.3654 -4.2669,1.9627 -7.5097,1.9627h-16.5555zM15.0074,12.9901c1.7067,0 2.9868,-0.9387 2.9868,-2.9015c0,-1.87742 -1.2801,-2.81614 -3.0722,-2.81614h-5.5469v5.63224h5.6323zM15.7754,25.7054c1.9628,0 3.4135,-1.1948 3.4135,-3.3282c0,-2.3041 -1.5361,-3.3282 -3.4135,-3.3282h-6.31497v6.7417h6.31497z"></path><path d="M29.6016,0.18945h8.4484v32.85495h-8.4484z"></path><path d="M39.7539,21.3529c0,-7.4243 4.7789,-12.3739 12.2033,-12.3739c7.4243,0 12.1179,5.0349 12.1179,12.3739c0,7.4244 -4.6936,12.374 -12.1179,12.374c-7.4244,0 -12.2033,-4.9496 -12.2033,-12.374zM55.6267,21.3529c0,-4.0962 -1.2801,-6.6563 -3.8402,-6.6563c-2.5601,0 -3.7549,2.5601 -3.7549,6.6563c0,4.0962 1.1948,6.7417 3.7549,6.7417c2.5601,-0.0853 3.8402,-2.6455 3.8402,-6.7417z"></path><path d="M65.0156,21.3529c0,-7.4243 4.7789,-12.3739 12.2033,-12.3739c7.4243,0 12.0326,4.9496 12.0326,12.3739c0,7.4244 -4.6936,12.374 -12.118,12.374c-7.339,0 -12.1179,-4.9496 -12.1179,-12.374zM80.8884,21.3529c0,-4.0962 -1.2801,-6.6563 -3.8402,-6.6563c-2.5601,0 -3.7548,2.5601 -3.7548,6.6563c0,4.0962 1.1947,6.7417 3.7548,6.7417c2.5601,-0.0853 3.8402,-2.6455 3.8402,-6.7417z"></path><path d="M90.957,9.57674h7.8511v3.49886h0.1706c1.5363,-2.7308 3.6693,-4.18156 7.0833,-4.18156c2.987,0 5.205,1.45076 6.315,4.01086h0.17c1.878,-3.07214 4.353,-4.01086 7.254,-4.01086c5.462,0 7.766,4.01086 7.766,9.38716v14.678h-8.193v-13.2273c0,-2.3894 -0.768,-3.9255 -2.816,-3.9255c-2.048,0 -3.072,1.8774 -3.072,4.4375v12.7153h-8.192v-13.2273c0,-2.3894 -0.768,-3.9255 -2.816,-3.9255c-2.049,0 -3.0726,1.8774 -3.0726,4.4375v12.7153h-8.4484z"></path><path d="M137.893,29.8869h-0.085v3.0721h-7.851v-32.76955h8.192v11.77655h0.171c1.536,-2.04808 3.67,-3.15746 6.656,-3.15746c5.889,0 9.302,5.29096 9.302,12.37396c0,7.9364 -3.669,12.5446 -9.814,12.5446c-2.56,0 -5.205,-1.1947 -6.571,-3.8402zM145.83,21.0971c0,-3.7548 -1.366,-6.2296 -3.84,-6.2296c-2.561,0 -4.097,2.4748 -4.097,6.2296c0,3.7549 1.622,6.2297 4.097,6.2297c2.474,0 3.84,-2.3895 3.84,-6.2297z"></path><path d="M155.219,21.268c0,-7.339 4.864,-12.37396 11.862,-12.37396c3.499,0 6.144,1.10936 8.192,3.07216c2.731,2.6455 3.926,6.7417 3.84,11.5206h-15.702c0.342,2.9014 1.707,4.4375 4.182,4.4375c1.45,0 2.73,-0.6827 3.243,-2.2188h7.936c-1.366,5.3763 -5.547,8.0217 -11.435,8.0217c-7.254,-0.0853 -12.118,-5.0349 -12.118,-12.4592zM163.411,18.7932h7.51c-0.171,-2.8161 -1.707,-4.2669 -3.67,-4.2669c-2.304,-0.0853 -3.584,1.5361 -3.84,4.2669z"></path><path d="M188.414,13.5873h0.17c1.707,-3.2428 3.926,-4.52285 6.742,-4.52285c0.683,0 1.109,0.08534 1.365,0.25602v7.16833h-0.17c-4.865,-0.8534 -7.681,1.4508 -7.681,6.7417v9.8138h-8.278v-23.46782h7.852z"></path><path d="M197.544,33.0444h7.936c0.342,1.0241 1.366,1.9628 3.328,1.9628c2.646,0 3.585,-1.6214 3.585,-4.0962v-1.7068h-0.171c-1.28,1.5361 -3.072,2.6455 -5.632,2.6455c-5.035,0 -9.473,-3.7548 -9.473,-11.0939c0,-6.7416 3.584,-11.94721 9.046,-11.94721c3.157,0 5.035,1.28011 6.315,3.24281h0.171v-2.56011h7.851v20.31031c0,3.7549 -1.28,6.6563 -3.243,8.3631c-2.048,1.7921 -4.95,2.5601 -8.278,2.5601c-6.315,0.0853 -10.667,-2.4748 -11.435,-7.6804zM212.734,20.4145c0,-2.9015 -1.365,-5.2909 -3.755,-5.2909c-2.304,0 -3.755,2.0481 -3.755,5.2909c0,3.1575 1.451,5.3763 3.755,5.3763c2.304,0 3.755,-2.3042 3.755,-5.3763z"></path></g></g></svg>