<svg version="1.1" xmlns="http://www.w3.org/2000/svg" xmlns:xlink="http://www.w3.org/1999/xlink" width="600" height="141" viewBox="0,0,256,60.15625"><g fill="#ffffff" fill-rule="nonzero" stroke="none" stroke-width="1" stroke-linecap="butt" stroke-linejoin="miter" stroke-miterlimit="10" stroke-dasharray="" stroke-dashoffset="0" font-family="none" font-weight="none" font-size="none" text-anchor="none" style="mix-blend-mode: normal"><g transform="translate(0,0.10479) scale(0.42667,0.42667)"><path d="M87.1,102.201l-25,10.9v-1.1c-4.8,1.2 -10.2,1.9 -15.2,2.2c-23.6,-0.2 -42.2,-12.6 -42.5,-27.2005v-5.4c7.7,11.2 23.5,18.8005 42.5,18.5005c6.4,0.3 13,-0.7005 18.5,-2.2005l2.2,-5.4c-6.5,2 -13.7,3.3 -20.7,3.3c-23.6,0 -42.2,-12.3 -42.5,-27.2v-4.4c7.7,10.4 23.5,17.9 42.5,17.4c8.6,0.5 16.9,-1.3 24,-4.4l1.1,-5.4c-6.9,3.6 -15.8,5.7 -25,5.4c-23.6,0.3 -42.2,-12 -42.5,-27.2v-4.4c7.7,10.6 23.5,18.2 42.5,18.5c10.8,-0.3 21,-3.2 29.4,-7.6l1.1,-6.5c-7.6,5.6 -18.7,9.3 -30.5,9.8c-23.6,-0.5 -42.2,-12.9 -42.5,-28.3c0.2,-14.7 18.9,-26.99998 42.5,-27.19998c14,0.2 27.1,5.10001 34.8,13.09998l0.8,1.3h5.5l-0.8,-1.3c-7.7,-10.49997 -23.2,-17.39998 -40.3,-17.39998c-26.2,-0.1 -47,14.19998 -47,31.39998v1.1v55.5c0.9,16.8005 21.2,30.5005 46.8,30.5005c16.9,0.1 32.2,-6.6 40.3,-16.3z"></path><path d="M76.9002,140.5l8.8,-37.4l-25.3,11l15.4,-64.7996h-29.6l7.7,-31.9h94.4998l-7.7,31.9h-30.8l-6.6,17.6l34.1,-14.3zM92.3002,95.5004l-4.4,21.9996l36.2998,-54.8996l-29.6998,13.2l13.1998,-30.8h29.7l5.5,-23.1h-85.7998l-5.5,23.1h29.7l-14.3,61.4996z"></path><path d="M211.1,38.8008v0.1c0.1,3.5 -1,6.2 -3.2,8.2c-2.2,2 -5.2,3 -9.1,3c-3.9,0 -7.1,-1.3 -9.5,-3.8c-2.4,-2.5 -3.6,-5.8 -3.6,-9.8v-6.5c0,-4 1.2,-7.3 3.5,-9.8c2.4,-2.5 5.5,-3.8 9.3,-3.8c4,0 7.1,1 9.4,2.9c2.3,2 3.4,4.7 3.3,8.2v0.1h-6.4c0,-2.1 -0.5,-3.7 -1.5,-4.7c-1,-1 -2.6,-1.5 -4.7,-1.5c-2,0 -3.5,0.8 -4.6,2.4c-1.1,1.6 -1.7,3.6 -1.7,6.1v6.6c0,2.5 0.6,4.6 1.7,6.2c1.2,1.6 2.8,2.4 4.9,2.4c2,0 3.4,-0.5 4.4,-1.5c1,-1 1.5,-2.6 1.5,-4.7h6.3zM247.3,36.2008c0,4 -1.3,7.4 -3.8,10c-2.5,2.6 -5.8,3.9 -9.9,3.9c-4.1,0 -7.3,-1.3 -9.9,-3.9c-2.5,-2.6 -3.8,-6 -3.8,-10v-5.9c0,-4 1.3,-7.3 3.8,-10c2.5,-2.6 5.8,-4 9.8,-4c4.1,0 7.4,1.3 9.9,4c2.6,2.6 3.8,6 3.8,10v5.9zM240.7,30.2008c0,-2.6 -0.6,-4.6 -1.9,-6.3c-1.3,-1.6 -3,-2.5 -5.3,-2.5c-2.2,0 -4,0.8 -5.2,2.5c-1.2,1.6 -1.9,3.7 -1.9,6.3v5.9c0,2.6 0.6,4.7 1.9,6.4c1.2,1.6 3,2.5 5.2,2.5c2.3,0 4,-0.8 5.3,-2.5c1.3,-1.6 1.9,-3.8 1.9,-6.4zM264.3,49.6008h-6.6v-32.8h6.6zM302.2,49.6008h-6.6l-13.2,-22.1h-0.1v22.1h-6.6v-32.8h6.6l13.2,22.1h0.1v-22.1h6.6zM335.3,21.9008h-9.4v27.7h-6.6v-27.7h-9.2v-5.1h25.2zM362.5,35.2008h-12.2v9.4h14.5v5h-21v-32.8h21v5.1h-14.4v8.2h12.2v5.1zM380.8,44.6008h14.7v5h-21.3v-32.8h6.6zM423.5,35.2008h-12.2v9.4h14.5v5h-21v-32.8h21v5.1h-14.4v8.2h12.2v5.1zM460.4,45.2008c-1,1.3 -2.5,2.5 -4.6,3.5c-2,1 -4.6,1.5 -7.8,1.5c-4,0 -7.2,-1.2 -9.7,-3.7c-2.5,-2.5 -3.8,-5.7 -3.8,-9.7v-6.9c0,-4 1.2,-7.2 3.7,-9.7c2.4,-2.5 5.6,-3.8 9.4,-3.8c4,0 7.1,1 9.2,2.9c2.1,1.9 3.2,4.4 3.1,7.6v0.1h-6.2c0,-1.7 -0.5,-3.1 -1.5,-4.1c-1,-1 -2.5,-1.5 -4.4,-1.5c-2,0 -3.6,0.8 -4.9,2.3c-1.2,1.6 -1.8,3.6 -1.8,6v6.9c0,2.5 0.6,4.5 1.9,6.1c1.3,1.6 3,2.3 5.1,2.3c1.6,0 2.8,-0.2 3.7,-0.5c0.9,-0.3 1.6,-0.7 2.1,-1.2v-6.4h-6.3v-4.6h12.9v12.9zM477.4,36.5008v13.1h-6.6v-32.8h11.4c3.7,0 6.7,0.9 8.8,2.6c2.1,1.7 3.2,4.1 3.2,7.1c0,1.7 -0.4,3.1 -1.3,4.4c-0.9,1.2 -2.2,2.2 -3.9,3c1.9,0.6 3.3,1.5 4.2,2.9c0.8,1.3 1.3,3 1.3,5v2.4c0,0.9 0.1,1.9 0.4,2.9c0.2,1 0.7,1.7 1.3,2.2v0.5h-6.8c-0.6,-0.5 -1,-1.3 -1.2,-2.4c-0.2,-1.1 -0.3,-2.2 -0.3,-3.2v-2.3c0,-1.6 -0.4,-2.9 -1.3,-3.8c-0.9,-0.9 -2.2,-1.4 -3.8,-1.4h-5.4zM477.4,31.5008h4.7c1.8,0 3.2,-0.4 4.1,-1.2c0.9,-0.8 1.4,-1.9 1.4,-3.5c0,-1.5 -0.5,-2.7 -1.4,-3.6c-0.9,-0.9 -2.2,-1.3 -4,-1.3h-4.8zM522.1,42.6008h-10.6l-2.2,7.1h-6.9l11.1,-32.8h6.7l11,32.8h-6.9zM513.1,37.4008h7.4l-3.6,-11.6h-0.1zM545.8,37.7008v11.9h-6.6v-32.8h12.6c3.8,0 6.7,1 8.9,2.9c2.2,1.9 3.2,4.5 3.2,7.6c0,3.1 -1.1,5.7 -3.2,7.6c-2.2,1.9 -5.1,2.9 -8.9,2.9h-6zM545.8,32.7008h6c1.8,0 3.2,-0.5 4.2,-1.5c0.9,-1 1.4,-2.3 1.4,-3.8c0,-1.6 -0.5,-2.9 -1.4,-3.9c-0.9,-1 -2.3,-1.5 -4.2,-1.5h-6zM600,49.6008h-6.6v-13.6h-13.4v13.6h-6.6v-32.8h6.6v14.1h13.4v-14.1h6.6z"></path><path d="M197.7,103.201h-4.1v-21.6002h-7.4v-3.5h18.9v3.5h-7.4zM225.2,103.201h-4.1v-11.7002c0,-1.5 -0.3,-2.6 -0.9,-3.3c-0.6,-0.7 -1.5,-1.1 -2.8,-1.1c-1.7,0 -2.9,0.5 -3.7,1.5c-0.8,1 -1.2,2.7 -1.2,5.1v9.4002h-4v-26.7002h4v6.8c0,1.1 -0.1,2.2 -0.2,3.5h0.3c0.5,-0.9 1.3,-1.6 2.3,-2.1c1,-0.5 2.1,-0.8 3.4,-0.8c4.6,0 6.9,2.3 6.9,7zM239.1,103.501c-3,0 -5.3,-0.9 -6.9,-2.6c-1.7,-1.7002 -2.5,-4.1002 -2.5,-7.1002c0,-3.1 0.8,-5.5 2.3,-7.3c1.5,-1.8 3.7,-2.7 6.4,-2.7c2.5,0 4.5,0.8 5.9,2.3c1.5,1.5 2.2,3.6 2.2,6.3v2.2h-12.7c0.1,1.8 0.6,3.3 1.5,4.2c0.9,1 2.3,1.5002 4,1.5002c1.1,0 2.2,-0.1 3.1,-0.3c1,-0.2002 2,-0.6002 3.1,-1.1002v3.3002c-1,0.5 -2,0.8 -3,1c-0.9,0.2 -2.1,0.3 -3.4,0.3zM238.4,86.9008c-1.3,0 -2.3,0.4 -3.1,1.2c-0.8,0.8 -1.2,2 -1.4,3.6h8.6c0,-1.6 -0.4,-2.8 -1.1,-3.6c-0.7,-0.8 -1.7,-1.2 -3,-1.2zM269.7,87.2008h-4.6v16.0002h-4.1v-16.0002h-3.1v-1.9l3.1,-1.2v-1.2c0,-2.2 0.5,-3.9 1.6,-5c1.1,-1.1 2.7,-1.6 4.8,-1.6c1.4,0 2.8,0.2 4.2,0.7l-1.1,3.1c-1,-0.3 -1.9,-0.5 -2.9,-0.5c-0.9,0 -1.6,0.3 -2,0.8c-0.4,0.6 -0.6,1.4 -0.6,2.5v1.2h4.6v3.1zM286.4,103.201l-0.6,-2.5h-0.2c-0.6,0.9 -1.4,1.6 -2.4,2.1c-1,0.5 -2.2,0.8 -3.5,0.8c-2.3,0 -4,-0.6 -5.2,-1.7c-1.2,-1.1 -1.7,-2.9002 -1.7,-5.2002v-12.5h4.1v11.7c0,1.5 0.3,2.5 0.9,3.3c0.6,0.7 1.5,1.1002 2.8,1.1002c1.7,0 2.9,-0.5002 3.7,-1.5002c0.8,-1 1.2,-2.7 1.2,-5.1v-9.5h4.1v19.0002zM302.4,100.201c1,0 2,-0.2 3,-0.5002v3.0002c-0.4,0.2 -1,0.4 -1.7,0.5c-0.7,0.1 -1.4,0.2 -2.2,0.2c-3.8,0 -5.7,-2 -5.7,-6.0002v-10.2h-2.6v-1.8l2.8,-1.5l1.4,-4h2.5v4.2h5.4v3.1h-5.4v10.2c0,1 0.2,1.7 0.7,2.2c0.3,0.4002 1,0.6002 1.8,0.6002zM322.5,103.201l-0.6,-2.5h-0.2c-0.6,0.9 -1.4,1.6 -2.4,2.1c-1,0.5 -2.2,0.8 -3.5,0.8c-2.3,0 -4,-0.6 -5.2,-1.7c-1.1,-1.1 -1.7,-2.9002 -1.7,-5.2002v-12.5h4.1v11.7c0,1.5 0.3,2.5 0.9,3.3c0.6,0.7 1.5,1.1002 2.8,1.1002c1.7,0 2.9,-0.5002 3.7,-1.5002c0.8,-1 1.2,-2.7 1.2,-5.1v-9.5h4.1v19.0002zM341.1,83.8008c0.8,0 1.5,0.1 2,0.2l-0.4,3.8c-0.6,-0.1 -1.2,-0.2 -1.8,-0.2c-1.6,0 -2.9,0.5 -3.9,1.6c-1,1.1 -1.5,2.4 -1.5,4.1v9.9002h-4v-19.0002h3.2l0.5,3.3h0.2c0.6,-1.1 1.5,-2 2.5,-2.7c0.9,-0.6 2,-1 3.2,-1zM354.2,103.501c-3,0 -5.3,-0.9 -6.9,-2.6c-1.7,-1.7002 -2.5,-4.1002 -2.5,-7.1002c0,-3.1 0.8,-5.5 2.3,-7.3c1.5,-1.8 3.7,-2.7 6.4,-2.7c2.5,0 4.5,0.8 5.9,2.3c1.5,1.5 2.2,3.6 2.2,6.3v2.2h-12.7c0.1,1.8 0.6,3.3 1.5,4.2c0.9,1 2.3,1.5002 4,1.5002c1.1,0 2.2,-0.1 3.1,-0.3c1,-0.2002 2,-0.6002 3.1,-1.1002v3.3002c-1,0.5 -2,0.8 -3,1c-1,0.2 -2.1,0.3 -3.4,0.3zM353.5,86.9008c-1.3,0 -2.3,0.4 -3.1,1.2c-0.8,0.8 -1.2,2 -1.4,3.6h8.6c0,-1.6 -0.4,-2.8 -1.1,-3.6c-0.8,-0.8 -1.8,-1.2 -3,-1.2zM392.1,93.6008c0,3.1 -0.8,5.5 -2.4,7.3002c-1.6,1.7 -3.8,2.6 -6.6,2.6c-1.8,0 -3.3,-0.4 -4.7,-1.2c-1.4,-0.8 -2.4,-2 -3.1,-3.5002c-0.7,-1.5 -1.1,-3.2 -1.1,-5.2c0,-3.1 0.8,-5.5 2.4,-7.2c1.6,-1.7 3.8,-2.6 6.7,-2.6c2.7,0 4.9,0.9 6.5,2.7c1.6,1.8 2.3,4.1 2.3,7.1zM378.3,93.6008c0,4.4 1.6,6.6002 4.9,6.6002c3.2,0 4.8,-2.2002 4.8,-6.6002c0,-4.3 -1.6,-6.5 -4.8,-6.5c-1.7,0 -2.9,0.6 -3.7,1.7c-0.8,1.1 -1.2,2.7 -1.2,4.8zM406.3,87.2008h-4.6v16.0002h-4.1v-16.0002h-3.1v-1.9l3.1,-1.2v-1.2c0,-2.2 0.5,-3.9 1.6,-5c1.1,-1.1 2.7,-1.6 4.8,-1.6c1.4,0 2.8,0.2 4.2,0.7l-1.1,3.1c-1,-0.3 -1.9,-0.5 -2.9,-0.5c-0.9,0 -1.6,0.3 -2,0.8c-0.4,0.5 -0.6,1.4 -0.6,2.5v1.2h4.6v3.1zM434.7,103.201h-4.1v-11.7002c0,-1.5 -0.3,-2.5 -0.8,-3.3c-0.5,-0.7 -1.4,-1.1 -2.6,-1.1c-1.6,0 -2.7,0.5 -3.4,1.5c-0.7,1 -1.1,2.7 -1.1,5.1v9.5002h-4v-19.0002h3.2l0.6,2.5h0.2c0.5,-0.9 1.3,-1.6 2.3,-2.1c1,-0.5 2.1,-0.7 3.3,-0.7c2.9,0 4.9,1 5.8,3h0.3c0.6,-0.9 1.4,-1.7 2.4,-2.2c1,-0.5 2.2,-0.8 3.5,-0.8c2.3,0 3.9,0.6 5,1.7c1,1.1 1.6,2.9 1.6,5.2v12.4002h-4v-11.7002c0,-1.5 -0.3,-2.5 -0.8,-3.3c-0.6,-0.7 -1.4,-1.1 -2.6,-1.1c-1.6,0 -2.7,0.5 -3.4,1.5c-0.7,1 -1.1,2.5 -1.1,4.5v10.1002zM469.1,93.6008c0,3.1 -0.8,5.5 -2.4,7.3002c-1.6,1.7 -3.8,2.6 -6.6,2.6c-1.8,0 -3.3,-0.4 -4.7,-1.2c-1.4,-0.8 -2.4,-2 -3.1,-3.5002c-0.7,-1.5 -1.1,-3.2 -1.1,-5.2c0,-3.1 0.8,-5.5 2.4,-7.2c1.6,-1.7 3.8,-2.6 6.7,-2.6c2.7,0 4.9,0.9 6.5,2.7c1.5,1.8 2.3,4.1 2.3,7.1zM455.3,93.6008c0,4.4 1.6,6.6002 4.9,6.6002c3.2,0 4.8,-2.2002 4.8,-6.6002c0,-4.3 -1.6,-6.5 -4.8,-6.5c-1.7,0 -2.9,0.6 -3.7,1.7c-0.8,1.1 -1.2,2.7 -1.2,4.8zM490.5,103.201h-4.1v-11.7002c0,-1.5 -0.3,-2.6 -0.9,-3.3c-0.6,-0.7 -1.5,-1.1 -2.8,-1.1c-1.7,0 -3,0.5 -3.7,1.5c-0.7,1 -1.2,2.7 -1.2,5.1v9.5002h-4v-19.0002h3.2l0.6,2.5h0.2c0.6,-0.9 1.4,-1.6 2.4,-2.1c1,-0.5 2.2,-0.7 3.5,-0.7c4.6,0 6.8,2.3 6.8,7zM504.4,103.501c-3,0 -5.3,-0.9 -6.9,-2.6c-1.7,-1.7002 -2.5,-4.1002 -2.5,-7.1002c0,-3.1 0.8,-5.5 2.3,-7.3c1.5,-1.8 3.7,-2.7 6.4,-2.7c2.5,0 4.5,0.8 5.9,2.3c1.5,1.5 2.2,3.6 2.2,6.3v2.2h-12.7c0.1,1.8 0.6,3.3 1.5,4.2c0.9,1 2.3,1.5002 4,1.5002c1.1,0 2.2,-0.1 3.1,-0.3c0.9,-0.2002 2,-0.6002 3.1,-1.1002v3.3002c-1,0.5 -2,0.8 -3,1c-1,0.2 -2.1,0.3 -3.4,0.3zM503.6,86.9008c-1.3,0 -2.3,0.4 -3.1,1.2c-0.8,0.8 -1.2,2 -1.4,3.6h8.6c0,-1.6 -0.4,-2.8 -1.1,-3.6c-0.7,-0.8 -1.7,-1.2 -3,-1.2zM512.8,84.2008h4.4l3.9,10.8c0.6,1.5 1,3 1.2,4.3h0.1c0.1,-0.6 0.3,-1.4 0.6,-2.3c0.3,-0.9 1.7,-5.2 4.4,-12.8h4.4l-8.1,21.5002c-1.5,3.9 -3.9,5.9 -7.4,5.9c-0.9,0 -1.8,-0.1 -2.6,-0.3v-3.2c0.6,0.1 1.3,0.2 2.1,0.2c1.9,0 3.3,-1.1 4.1,-3.4l0.7,-1.8z"></path></g></g></svg>