<svg version="1.1" xmlns="http://www.w3.org/2000/svg" xmlns:xlink="http://www.w3.org/1999/xlink" width="601" height="118" viewBox="0,0,256,50.25"><g fill="#ffffff" fill-rule="nonzero" stroke="none" stroke-width="1" stroke-linecap="butt" stroke-linejoin="miter" stroke-miterlimit="10" stroke-dasharray="" stroke-dashoffset="0" font-family="none" font-weight="none" font-size="none" text-anchor="none" style="mix-blend-mode: normal"><g transform="translate(-0.02126,-0.00405) scale(0.42596,0.42596)"><path d="M53.0996,59.0008c0,3.2 2.5,5.7 5.7,5.7c3.2,0 5.7,-2.5 5.7,-5.7c0,-3.2 -2.5,-5.7 -5.7,-5.7c-3.2,0.1 -5.7,2.6 -5.7,5.7zM100.9,53.4008c-3.2004,0 -5.7004,2.5 -5.7004,5.7c0,3.2 2.5,5.7 5.7004,5.7c3.2,0 5.7,-2.5 5.7,-5.7c0,-3.2 -2.5,-5.7 -5.7,-5.7zM100.9,96.2008c-3.2004,0 -5.7004,2.5 -5.7004,5.7002c0,3.2 2.5,5.7 5.7004,5.7c3.2,0 5.7,-2.5 5.7,-5.7c0,-3.2002 -2.5,-5.7002 -5.7,-5.7002z"></path><path d="M113,6.29999c-5.7,-7.1 -15.9002,-7.39999 -21.9002,-1.79999l-0.7,0.70001l-1.4,1.09998c-5.7,4.60001 -14.2,4.20001 -19.5,-1.09998v-0.40002c-1.8,-1.8 -4.2,-3.2 -6.7,-3.9c-0.4,0 -1.1,-0.39999 -1.4,-0.39999h-5.7c-0.4,0 -0.7,-0.00001 -1.1,0.39999h-0.7c-0.4,0 -0.7,0.4 -1.1,0.4c0,0 -0.4,0.00002 -0.4,0.40002c-0.4,0 -0.7,0.4 -1.1,0.4c0,0 -0.4,-0.00001 -0.4,0.39999c-0.4,0.4 -0.7,0.40001 -1.1,0.70001c0,0 -0.4,0 -0.4,0.4c-0.4,0.4 -0.7,0.39998 -1.1,0.69998l-0.4,0.40002l-0.7,0.69998l-1.4,1.10001c-5.7,4.6 -14.2,4.2 -19.1,-1.10001c0,0 -0.4,0.00001 -0.4,-0.39999l-0.7,-0.70001c-2.1,-1.8 -4.6,-3.2 -7.4,-3.5h-6.4c0,0.4 -0.4,0.40001 -0.7,0.70001h-0.1c-1.79999,0.7 -3.49999,1.39999 -4.99999,2.79999l-0.4,0.40002l-1.1,1.09998c-1.4,1.4 -2.1,3.2 -2.8,4.60001c0,0.4 -0.40001,0.7 -0.40001,1.1c0,0.4 -0.4,0.7 -0.4,1.4c-0.4,2.5 -0.4,5 0.4,7.4c0,0.4 0.40001,0.7 0.40001,1.1v0.4c0,0.4 0.4,0.7 0.4,1.1c0.4,0.4 0.39999,0.7 0.69999,1.4c0.7,0.4 1.40001,1.1 1.80001,1.4l0.69999,0.7l0.70001,0.7c5.29999,5.3 5.29999,14.5 -0.4,20.2c-0.7,0.7 -1.8,1.8 -2.1,2.5c-0.4,0.4 -0.40001,0.7 -0.70001,1.4v0.4c-0.4,0.4 -0.39999,0.7 -0.69999,1.1v0.4c0,0.4 -0.4,0.7 -0.4,1.1v0.4c0,0.4 -0.00001,0.7 -0.40001,1.1v5.3c0,0.4 0.00001,0.7 0.40001,1.1v0.4c0.7,2.5 2.1,5 4.2,7.1c5.69999,5.7 5.69999,14.9 0,20.5l-0.4,0.4l-0.70001,0.7v0.4c-0.4,0.4 -0.69999,0.7 -0.69999,1.1c0,0 0,0.4 -0.4,0.4c-0.4,0.4 -0.4,0.7 -0.7,1.1l-0.4,0.4c0,0.4 -0.4,0.4 -0.4,0.7c0,0.3 -0.40001,0.4 -0.40001,0.7c0,0.4 0.00001,0.4 -0.39999,0.7c-0.7,1.4 -1.1,3.2 -1.1,4.6v2.8c0.4,1.1 0.4,2.1 1.1,2.8c0,0.4 0.39999,0.7 0.39999,0.7c0,0 0.00001,0.4 0.40001,0.4c0,0.4 0.4,0.7 0.4,1.1c0,0 0,0.4 0.4,0.4c0.4,0.7 0.7,1.1 1.1,1.4c0,0 0,0.4 0.4,0.4c0,0 -0.00001,0.4 0.4,0.4c0,0.4 0.39999,0.4 0.39999,0.4l0.40001,0.4c0.4,0.4 0.7,0.4 0.7,0.7l0.39999,0.4c0,0 0.40001,0 0.40001,0.4c0.4,0.4 0.69999,0.7 1.09999,0.7c0,0 0.40001,0 0.40001,0.4c0.4,0.4 0.7,0.4 1.09999,0.7h0.20001c0.39999,0.4 0.69999,0.4 1.39999,0.4c0.4,0 1.1,0.4 1.4,0.4h0.4c0.4,0 0.7,0 1.1,0.4h3.2c1.1,0 1.8,-0.4 2.8,-0.4h0.4c0.4,0 0.7,-0.4 1.1,-0.4h0.2c0.4,0 0.7,-0.4 1.1,-0.4h0.4c0.7,-0.4 1.8,-1.1 2.5,-1.4l1.1,-1.1l0.4,-0.4c5.7,-6 14.9,-6 20.5,0c6.4,6.7 17,6.4 23,-1.1c4.2,-5.3 4.2,-13.1 0,-18.8c-5.7,-7.1 -15.9,-7.4 -21.9,-1.8l-0.7,0.7l-1.4,1.1c-5.7,4.6 -14.2,4.2 -19.5,-1.1l-0.7,-0.7l-1.1,-1.4c-4.6,-5.7 -4.2,-14.2 1.1,-19.5c3.2,-2.8 4.6,-6.7 4.6,-10.6v-1.1c0,-3.5 -1.4,-7.1 -4.2,-9.6c0,-0.4 -0.4,-0.4 -0.4,-0.7l-1.1,-1.4c-4.6,-5.7 -4.2,-14.2 1.1,-19.5l0.4,-0.4l0.4,-0.4c5.7,-6 14.9,-6 20.5,0l0.4,0.4l0.4,0.4l0.7,0.7c0.4,0 0.4,0.4 0.7,0.4c0.3,0 0.4,0.4 0.7,0.4c0.3,0 0.4,0.4 0.7,0.4c0.3,0 0.4,0.4 0.7,0.4c0.3,0 0.4,0.4 0.7,0.4c0.3,0 0.4,0.4 0.7,0.4c0.3,0 0.4,0 0.7,0.4c0.4,0 0.4,0 0.7,0.4h6c0.4,0 0.7,0 1.1,-0.4h0.7c0.4,0 0.7,-0.4 1.1,-0.4h0.4c0.4,0 0.7,-0.4 1.4,-0.7c1.4,-0.7 2.8,-1.8 3.9,-2.8l0.4,-0.4c5.7,-6 14.9,-6 20.5,0c6,7.1 17.0002,6.7 22.7002,-0.7c3.8,-6.5 3.8,-14.3 -0.4,-19.60001z"></path><path d="M193.7,50.2008c-2.1,-2.1 -3.9,-3.5 -6.4,-4.6c-2.1,-1.1 -4.6,-1.8 -7.8,-1.8c-2.8,0 -5.7,0.7 -7.8,1.8c-2.1,1.1 -3.9,2.5 -5.3,4.6c-1.4,1.8 -2.5,3.9 -3.2,6.4c-0.7,2.5 -1.1,5 -1.1,7.4c0,2.4 0.4,5 1.4,7.4c0.7,2.5 2.1,4.2 3.5,6c1.4,1.8 3.5,3.2 5.7,4.2c2.1,1.1 4.6,1.4 7.4,1.4c3.2,0 5.7,-0.7 7.8,-1.8c2.1,-1.1 4.2,-2.5 6,-4.6l7.4,7.8c-2.8,3.2 -6,5.3 -9.6,6.7c-3.5,1.4 -7.4,2.1 -11.7,2.1c-4.2,0 -8.5,-0.7 -12,-2.1c-3.5,-1.4 -6.7,-3.5 -9.2,-6c-2.5,-2.5 -4.6,-5.7 -6,-9.2c-1.4,-3.5 -2.1,-7.8 -2.1,-12c0,-4.2 0.7,-8.5 2.1,-12c1.4,-3.5 3.5,-6.7 6,-9.6c2.5,-2.5 5.7,-4.6 9.2,-6c3.5,-1.4 7.8,-2.1 12,-2.1c4.2,0 8.1,0.7 11.7,2.1c3.9,1.4 7.1,3.9 9.9,6.7zM217.7,63.3008c0,2.8 0.4,5.7 1.4,7.8c0.7,2.5 2.1,4.6 3.5,6.4c1.4,1.8 3.5,3.2 5.7,3.9c2.1,1.1 5,1.4 7.8,1.4c2.8,0 5.3,-0.4 7.8,-1.4c2.1,-1.1 4.2,-2.5 5.7,-3.9c1.4,-1.8 2.8,-3.9 3.5,-6.4c0.7,-2.5 1.4,-5 1.4,-7.8c0,-2.8 -0.4,-5.7 -1.4,-7.8c-0.7,-2.5 -2.1,-4.6 -3.5,-6.4c-1.4,-1.8 -3.5,-3.2 -5.7,-3.9c-2.1,-1.1 -5,-1.4 -7.8,-1.4c-2.8,0 -5.3,0.4 -7.8,1.4c-2.1,1.1 -4.2,2.5 -5.7,3.9c-1.4,1.8 -2.8,3.9 -3.5,6.4c-0.7,2.5 -1.4,5 -1.4,7.8zM206.4,63.3008c0,-4.2 0.7,-8.1 2.1,-11.7c1.4,-3.5 3.5,-6.7 6.4,-9.6c2.8,-2.8 5.7,-5 9.6,-6.4c3.5,-1.4 7.4,-2.5 11.7,-2.5c4.3,0 8.1,0.7 11.7,2.5c3.5,1.4 6.7,3.5 9.6,6.4c2.8,2.8 4.6,6 6.4,9.6c1.4,3.5 2.1,7.4 2.1,11.7c0,4.2 -0.7,8.1 -2.1,11.7c-1.4,3.5 -3.5,6.7 -6.4,9.6c-2.8,2.8 -5.7,4.6 -9.6,6.4c-3.5,1.4 -7.4,2.5 -11.7,2.5c-4.2,0 -8.1,-0.7 -11.7,-2.5c-3.5,-1.4 -6.7,-3.5 -9.6,-6.4c-2.8,-2.8 -4.6,-5.7 -6.4,-9.6c-1,-3.6 -2.1,-7.5 -2.1,-11.7zM276.9,92.0008h10.6v-56.6h-10.6zM274.4,14.8008c0,-2.1 0.7,-3.9 2.1,-5.7c1.4,-1.4 3.2,-2.5 5.3,-2.5c2.1,0 3.9,0.7 5.3,2.5c1.4,1.4 2.1,3.5 2.1,5.7c0,2.2 -0.7,3.9 -2.1,5.7c-1.4,1.4 -3.2,2.5 -5.3,2.5c-2.1,0 -3.9,-0.7 -5.3,-2.5c-1.4,-1.5 -2.1,-3.6 -2.1,-5.7zM302.3,35.3008h10.7v8.8h0.4c1.4,-3.2 3.5,-5.7 7.1,-7.4c3.2,-1.8 7.1,-2.8 11.7,-2.8c2.8,0 5.3,0.4 7.8,1.4c2.5,0.7 4.6,2.1 6.4,3.9c1.8,1.8 3.2,3.9 4.6,6.7c1.1,2.8 1.8,6 1.8,9.9v36.5h-10.8v-33.6c0,-2.5 -0.4,-5 -1.1,-6.7c-0.7,-1.8 -1.8,-3.5 -2.8,-4.6c-1.1,-1.1 -2.5,-2.1 -4.2,-2.5c-1.4,-0.4 -3.2,-0.7 -5,-0.7c-2.1,0 -4.2,0.4 -6,1.1c-1.8,0.7 -3.5,1.8 -5,3.5c-1.4,1.4 -2.5,3.5 -3.2,6c-0.7,2.5 -1.1,5.3 -1.1,8.5v29.4h-10.6v-57.3M391.9,83.1008c2.8,0 5.3,-0.4 7.8,-1.4c2.5,-1.1 4.2,-2.5 6,-4.2c1.4,-1.8 2.8,-3.9 3.5,-6.4c0.7,-2.5 1.4,-5 1.4,-8.1c0,-2.8 -0.4,-5.7 -1.4,-8.1c-0.7,-2.5 -2.1,-4.6 -3.5,-6.4c-1.8,-1.8 -3.5,-3.2 -6,-4.2c-2.5,-1.1 -5,-1.4 -7.8,-1.4c-2.8,0 -5.3,0.4 -7.8,1.4c-2.5,1.1 -4.2,2.5 -6,4.2c-1.4,1.8 -2.8,3.9 -3.5,6.4c-0.7,2.5 -1.4,5 -1.4,8.1c0,2.8 0.4,5.7 1.4,8.1c0.7,2.5 2.1,4.6 3.5,6.4c1.4,1.8 3.5,3.2 6,4.2c2.1,0.7 5,1.4 7.8,1.4zM421.3,91.6008h-10.6v-8.1h-0.4c-2.1,3.2 -5,5.3 -8.5,7.1c-3.5,1.8 -7.4,2.5 -11.3,2.5c-4.2,0 -8.5,-0.7 -12,-2.1c-3.5,-1.4 -6.7,-3.5 -9.2,-6.4c-2.5,-2.8 -4.6,-6 -5.7,-9.6c-1.4,-3.5 -2.1,-7.4 -2.1,-11.7c0,-4.3 0.7,-8.1 2.1,-12c1.4,-3.5 3.2,-6.7 5.7,-9.6c2.5,-2.8 5.7,-5 9.2,-6.4c3.5,-1.4 7.4,-2.1 12,-2.1c3.9,0 7.8,0.7 11.3,2.5c3.5,1.8 6.4,4.2 8.1,7.1h0.4v-42.50002h10.6v91.30002zM475.4,58.7008c0,-2.5 -0.4,-4.6 -1.1,-6.7c-0.7,-2.1 -1.8,-3.9 -3.2,-5.3c-1.4,-1.4 -3.2,-2.5 -5,-3.5c-2.1,-0.7 -4.2,-1.4 -7.1,-1.4c-2.5,0 -5,0.4 -7.1,1.4c-2.1,1.1 -3.9,2.1 -5.7,3.9c-1.4,1.4 -2.8,3.2 -3.5,5.3c-0.7,2.1 -1.4,3.9 -1.4,5.7h34zM441.5,67.5008c0,2.5 0.7,4.6 1.8,6.7c1.1,2.1 2.5,3.9 4.2,5.3c1.8,1.4 3.9,2.5 6,3.2c2.5,0.7 4.6,1.1 7.1,1.1c3.2,0 6.4,-0.7 8.8,-2.5c2.5,-1.4 4.6,-3.5 6.7,-6l8.1,6.4c-6,7.8 -14.5,11.7 -25.1,11.7c-4.6,0 -8.5,-0.7 -12,-2.1c-3.5,-1.4 -6.7,-3.5 -9.2,-6.4c-2.5,-2.8 -4.6,-5.7 -5.7,-9.6c-1.4,-3.5 -2.1,-7.4 -2.1,-11.7c0,-4.2 0.7,-8.1 2.1,-11.7c1.4,-3.5 3.5,-6.7 6,-9.6c2.5,-2.8 5.7,-4.6 9.2,-6.4c3.5,-1.4 7.4,-2.1 11.7,-2.1c5,0 9.2,0.7 12.7,2.5c3.5,1.8 6.4,3.9 8.5,6.7c2.1,2.8 3.9,6 5,9.6c1.1,3.5 1.4,7.1 1.4,11v3.9zM528.5,49.5008c-1.4,-1.4 -2.8,-2.8 -4.6,-3.9c-1.8,-1.1 -4.2,-1.8 -6.7,-1.8c-2.5,0 -4.6,0.7 -6.7,1.8c-1.8,1.1 -2.8,2.5 -2.8,4.6c0,1.8 0.7,3.2 1.8,3.9c1.1,1.1 2.5,1.8 3.9,2.5c1.4,0.7 3.2,1.1 4.6,1.4c1.8,0.4 3.2,0.7 4.2,0.7c2.1,0.7 4.6,1.1 6.4,2.1c2.1,0.7 3.9,1.8 5.3,3.2c1.4,1.4 2.5,2.8 3.5,4.6c0.7,1.8 1.4,3.9 1.4,6.7c0,3.2 -0.7,6 -2.1,8.1c-1.4,2.1 -3.2,4.2 -5.3,5.7c-2.1,1.5 -4.6,2.5 -7.4,3.2c-2.8,0.7 -5.7,1.1 -8.1,1.1c-4.6,0 -8.8,-0.7 -12.4,-2.1c-3.5,-1.4 -6.7,-3.9 -9.6,-7.8l8.1,-6.7c1.8,1.8 3.5,3.2 5.7,4.6c2.2,1.4 4.6,2.1 7.8,2.1c1.4,0 2.8,0 4.2,-0.4c1.4,-0.4 2.5,-0.7 3.5,-1.4c1.1,-0.7 1.8,-1.4 2.5,-2.1c0.7,-1.1 1.1,-2.1 1.1,-3.2c0,-1.4 -0.4,-2.8 -1.4,-3.9c-1.1,-1.1 -2.1,-1.8 -3.5,-2.5c-1.4,-0.7 -2.8,-1.1 -4.2,-1.4l-4.2,-1.1c-2.1,-0.7 -4.6,-1.1 -6.4,-1.8c-2.1,-0.7 -3.9,-1.8 -5.3,-2.8c-1.4,-1.1 -2.8,-2.8 -3.9,-4.6c-1.1,-1.8 -1.4,-4.2 -1.4,-6.7c0,-2.8 0.7,-5.7 1.8,-7.8c1.1,-2.1 2.8,-3.9 5,-5.3c2.1,-1.4 4.2,-2.5 6.7,-3.2c2.5,-0.7 5.3,-1.1 7.8,-1.1c3.9,0 7.4,0.7 11,2.1c3.5,1.4 6.4,3.9 8.5,7.1zM549.1,1.70081h10.6v57.29999l24.1,-24.1h14.5l-25.8,25.5l28.3,30.4h-15.2l-25.8,-29v29h-10.6v-89.09999"></path></g></g></svg>